<svg width="1600" height="1200" viewBox="0 0 1600 1200" fill="none" xmlns="http://www.w3.org/2000/svg">
  <rect width="1600" height="1200" fill="#E8E3D8"/>
  <rect x="110" y="92" width="1380" height="1016" rx="36" fill="#F8F5EF"/>
  <rect x="180" y="156" width="1240" height="94" rx="20" fill="#D8E4D2"/>
  <rect x="210" y="186" width="228" height="20" rx="10" fill="#7B8F73"/>
  <rect x="210" y="216" width="140" height="12" rx="6" fill="#9CA89B"/>
  <rect x="1220" y="180" width="160" height="38" rx="12" fill="#F2D7A6"/>
  <rect x="180" y="288" width="1240" height="730" rx="24" fill="white"/>
  <rect x="210" y="324" width="1180" height="48" rx="14" fill="#EEF2F4"/>
  <rect x="240" y="340" width="210" height="14" rx="7" fill="#8B949B"/>
  <rect x="590" y="340" width="170" height="14" rx="7" fill="#8B949B"/>
  <rect x="890" y="340" width="160" height="14" rx="7" fill="#8B949B"/>
  <rect x="1180" y="340" width="150" height="14" rx="7" fill="#8B949B"/>
  <g opacity="0.9">
    <rect x="210" y="396" width="1180" height="64" rx="16" fill="#F9FBFC"/>
    <rect x="240" y="420" width="190" height="14" rx="7" fill="#B6BDC2"/>
    <rect x="590" y="420" width="110" height="14" rx="7" fill="#C2C8CC"/>
    <rect x="890" y="412" width="140" height="30" rx="10" fill="#DDEAD5"/>
    <rect x="1180" y="412" width="150" height="30" rx="10" fill="#EFE2BF"/>
  </g>
  <g opacity="0.9">
    <rect x="210" y="478" width="1180" height="64" rx="16" fill="#F9FBFC"/>
    <rect x="240" y="502" width="160" height="14" rx="7" fill="#B6BDC2"/>
    <rect x="590" y="502" width="96" height="14" rx="7" fill="#C2C8CC"/>
    <rect x="890" y="494" width="120" height="30" rx="10" fill="#DDEAD5"/>
    <rect x="1180" y="494" width="150" height="30" rx="10" fill="#EFE2BF"/>
  </g>
  <g opacity="0.9">
    <rect x="210" y="560" width="1180" height="64" rx="16" fill="#F9FBFC"/>
    <rect x="240" y="584" width="210" height="14" rx="7" fill="#B6BDC2"/>
    <rect x="590" y="584" width="128" height="14" rx="7" fill="#C2C8CC"/>
    <rect x="890" y="576" width="172" height="30" rx="10" fill="#DDEAD5"/>
    <rect x="1180" y="576" width="150" height="30" rx="10" fill="#EFE2BF"/>
  </g>
  <g opacity="0.9">
    <rect x="210" y="642" width="1180" height="64" rx="16" fill="#F9FBFC"/>
    <rect x="240" y="666" width="146" height="14" rx="7" fill="#B6BDC2"/>
    <rect x="590" y="666" width="110" height="14" rx="7" fill="#C2C8CC"/>
    <rect x="890" y="658" width="150" height="30" rx="10" fill="#DDEAD5"/>
    <rect x="1180" y="658" width="150" height="30" rx="10" fill="#EFE2BF"/>
  </g>
  <g opacity="0.9">
    <rect x="210" y="724" width="1180" height="64" rx="16" fill="#F9FBFC"/>
    <rect x="240" y="748" width="220" height="14" rx="7" fill="#B6BDC2"/>
    <rect x="590" y="748" width="124" height="14" rx="7" fill="#C2C8CC"/>
    <rect x="890" y="740" width="132" height="30" rx="10" fill="#DDEAD5"/>
    <rect x="1180" y="740" width="150" height="30" rx="10" fill="#EFE2BF"/>
  </g>
  <rect x="930" y="842" width="460" height="136" rx="24" fill="#F6EACF"/>
  <rect x="964" y="878" width="180" height="16" rx="8" fill="#8F775A"/>
  <rect x="964" y="910" width="120" height="12" rx="6" fill="#B59D7E"/>
  <rect x="1210" y="874" width="140" height="64" rx="18" fill="#D8E4D2"/>
  <rect x="180" y="842" width="686" height="136" rx="24" fill="#EFF3F5"/>
  <rect x="214" y="878" width="270" height="16" rx="8" fill="#7F8A91"/>
  <rect x="214" y="910" width="180" height="12" rx="6" fill="#A4ADB3"/>
  <rect x="214" y="942" width="612" height="12" rx="6" fill="#C3CBD0"/>
</svg>
